<svg xmlns="http://www.w3.org/2000/svg" viewBox="0 0 670.2 784.4"><path d="M320.5 497.9c5.1 81.7-28 132.9-20.8 184.5 13.5 96 110.1 100.5 104.1 85.5-13.9-34.5-15-107.1-11-124.5 7.5-32.9 19.4-65.1 25.3-69.1 15.9-10.8 93.5 28.4 121.8 32.3 10.7 1.5 34.7-3.2 41.7-11.5 9.2-11 4.9-44 12.5-56.2 2.7-4.4 14.8-6.2 17.7-10.4 2.3-3.5-2.8-17.6-2.8-17.6s16.5-10.4 18.4-15.7c2.8-7.7-9.1-24.5-6.2-32.2 2.8-7.6 21.9-10.6 28.1-15.7 4.6-3.8 14.7-14.9 14.3-20.8-1.6-20.6-41.4-50.5-45.5-70.8-2-9.9 10.4-28.5 11.5-38.5 3.1-29.5-27.1-115.6-27.1-115.6s21.8-30.6-1-68.7C563.5 69.8 479 42 419.1 26.6 318 .7 238 36 238 36S222.2 2 194.2 8.9C47.4 45.6 15 170.7 7.8 272.4-.9 396.2 110.2 489.8 122.3 568.1c8.2 52.9-39.6 210.3-39.6 210.3" fill="none" stroke="#fafafa" stroke-width="14" stroke-linecap="round" stroke-linejoin="round" stroke-miterlimit="10"/><g fill="none" stroke="#fafafa" stroke-linejoin="round" stroke-miterlimit="10"><circle cx="320.5" cy="384.8" r="56.5" stroke-width="6"/><circle cx="320.5" cy="384.8" r="94.5" stroke-width="3"/><circle cx="320.5" cy="384.8" r="110.7" stroke-width="10"/></g></svg>