<?xml version="1.0" encoding="utf-8"?>
<!-- Generator: Adobe Illustrator 19.0.0, SVG Export Plug-In . SVG Version: 6.00 Build 0)  -->
<svg version="1.1" id="Layer_1" xmlns="http://www.w3.org/2000/svg" xmlns:xlink="http://www.w3.org/1999/xlink" x="0px" y="0px"
	 viewBox="0 0 670.2 784.4" style="enable-background:new 0 0 670.2 784.4;" xml:space="preserve">
<style type="text/css">
	.st0{fill:none;stroke:#FAFAFA;stroke-width:14;stroke-linecap:round;stroke-linejoin:round;stroke-miterlimit:10;}
	.st1{fill:none;stroke:#FAFAFA;stroke-width:6;stroke-linejoin:round;stroke-miterlimit:10;}
	.st2{fill:none;stroke:#FAFAFA;stroke-width:3;stroke-linejoin:round;stroke-miterlimit:10;}
	.st3{fill:none;stroke:#FAFAFA;stroke-width:10;stroke-linejoin:round;stroke-miterlimit:10;}
</style>
<g id="XMLID_29_">
	<g id="XMLID_25_">
		<path id="XMLID_98_" class="st0" d="M320.5,497.9c5.1,81.7-28,132.9-20.8,184.5c13.5,96,110.1,100.5,104.1,85.5
			c-13.9-34.5-15-107.1-11-124.5c7.5-32.9,19.4-65.1,25.3-69.1c15.9-10.8,93.5,28.4,121.8,32.3c10.7,1.5,34.7-3.2,41.7-11.5
			c9.2-11,4.9-44,12.5-56.2c2.7-4.4,14.8-6.2,17.7-10.4c2.3-3.5-2.8-17.6-2.8-17.6s16.5-10.4,18.4-15.7c2.8-7.7-9.1-24.5-6.2-32.2
			c2.8-7.6,21.9-10.6,28.1-15.7c4.6-3.8,14.7-14.9,14.3-20.8c-1.6-20.6-41.4-50.5-45.5-70.8c-2-9.9,10.4-28.5,11.5-38.5
			c3.1-29.5-27.1-115.6-27.1-115.6s21.8-30.6-1-68.7C563.5,69.8,479,42,419.1,26.6C318,0.7,238,36,238,36S222.2,2,194.2,8.9
			C47.4,45.6,15,170.7,7.8,272.4c-8.7,123.8,102.4,217.4,114.5,295.7c8.2,52.9-39.6,210.3-39.6,210.3"/>
	</g>
	<g id="XMLID_28_">
		<circle id="XMLID_47_" class="st1" cx="320.5" cy="384.8" r="56.5"/>
		<circle id="XMLID_215_" class="st2" cx="320.5" cy="384.8" r="94.5"/>
		<circle id="XMLID_218_" class="st3" cx="320.5" cy="384.8" r="110.7"/>
	</g>
</g>
</svg>
